<?xml version="1.0" encoding="UTF-8" standalone="no"?>
<svg
   width="535"
   height="535"
   viewBox="0 0 501.56251 501.56249"
   version="1.1"
   xmlns="http://www.w3.org/2000/svg">
  <g transform="translate(-156.41121,933.30685)">
    <g transform="matrix(0.99994059,0,0,0.99994059,-0.06321798,33.188377)">

      <!-- lime #b8bb26 — 0deg -->
      <path fill="#b8bb26" fill-rule="evenodd" stroke="none"
        d="m 309.54892,-710.38827 122.19683,211.67512 -56.15706,0.5268 -32.6236,-56.8692 -32.85645,56.5653 -27.90237,-0.011 -14.29086,-24.6896 46.81047,-80.4901 -33.22946,-57.8257 z"/>

      <!-- orange #fe8019 — 60deg -->
      <path fill="#fe8019" fill-rule="evenodd" stroke="none"
        transform="rotate(60,407.11155,-715.78724)"
        d="m 309.54892,-710.38827 122.19683,211.67512 -56.15706,0.5268 -32.6236,-56.8692 -32.85645,56.5653 -27.90237,-0.011 -14.29086,-24.6896 46.81047,-80.4901 -33.22946,-57.8257 z"/>

      <!-- teal #83a598 — 120deg -->
      <path fill="#83a598" fill-rule="evenodd" stroke="none"
        transform="rotate(120,407.33916,-716.08356)"
        d="m 309.54892,-710.38827 122.19683,211.67512 -56.15706,0.5268 -32.6236,-56.8692 -32.85645,56.5653 -27.90237,-0.011 -14.29086,-24.6896 46.81047,-80.4901 -33.22946,-57.8257 z"/>

      <!-- lime #b8bb26 — 180deg -->
      <path fill="#b8bb26" fill-rule="evenodd" stroke="none"
        transform="rotate(180,407.41868,-715.7565)"
        d="m 309.54892,-710.38827 122.19683,211.67512 -56.15706,0.5268 -32.6236,-56.8692 -32.85645,56.5653 -27.90237,-0.011 -14.29086,-24.6896 46.81047,-80.4901 -33.22946,-57.8257 z"/>

      <!-- orange #fe8019 — 240deg -->
      <path fill="#fe8019" fill-rule="evenodd" stroke="none"
        transform="rotate(-120,407.28823,-715.86995)"
        d="m 309.54892,-710.38827 122.19683,211.67512 -56.15706,0.5268 -32.6236,-56.8692 -32.85645,56.5653 -27.90237,-0.011 -14.29086,-24.6896 46.81047,-80.4901 -33.22946,-57.8257 z"/>

      <!-- teal #83a598 — 300deg -->
      <path fill="#83a598" fill-rule="evenodd" stroke="none"
        transform="rotate(-60,407.31177,-715.70016)"
        d="m 309.54892,-710.38827 122.19683,211.67512 -56.15706,0.5268 -32.6236,-56.8692 -32.85645,56.5653 -27.90237,-0.011 -14.29086,-24.6896 46.81047,-80.4901 -33.22946,-57.8257 z"/>

    </g>
  </g>
</svg>
